<svg xmlns="http://www.w3.org/2000/svg" version="1.0" width="301.000000pt" height="227.000000pt" viewBox="0 0 301.000000 227.000000" preserveAspectRatio="xMidYMid meet">

<g transform="translate(0.000000,227.000000) scale(0.100000,-0.100000)" fill="#ffffff" stroke="none">
<path d="M1288 2230 c-242 -51 -455 -159 -673 -342 -209 -176 -429 -443 -574 -701 l-32 -57 32 -58 c145 -257 365 -524 574 -700 293 -246 583 -362 907 -362 229 0 432 58 642 184 281 169 572 474 779 818 37 62 67 115 67 118 0 16 -147 246 -225 352 -103 139 -308 356 -426 450 -187 148 -408 257 -606 297 -132 27 -339 28 -465 1z m370 -366 c281 -57 501 -265 578 -546 25 -89 25 -290 0 -378 -72 -261 -275 -464 -536 -536 -88 -25 -289 -25 -378 0 -281 77 -489 297 -546 578 -107 520 362 989 882 882z" fill="#ffffff"/>
<path d="M1379 1481 c-107 -42 -200 -142 -228 -244 -22 -76 -11 -201 22 -269 36 -74 101 -139 175 -175 51 -25 67 -28 162 -28 95 0 111 3 162 28 74 36 139 101 175 175 25 51 28 67 28 162 0 95 -3 111 -28 162 -36 74 -101 139 -175 175 -48 24 -71 28 -152 30 -74 2 -105 -1 -141 -16z" fill="#ffffff"/>
</g>
</svg>